<?xml version="1.0" encoding="UTF-8"?>
<svg version="1.1" xmlns="http://www.w3.org/2000/svg" width="1024" height="1024">
<path d="M0 0 C5.00876308 5.59802933 6.83908482 11.3922584 6.6875 18.8125 C6.67654297 19.59036865 6.66558594 20.3682373 6.65429688 21.16967773 C6.00181157 39.10758629 -2.56516665 56.99294407 -12.875 71.375 C-13.4525 72.385625 -14.03 73.39625 -14.625 74.4375 C-15.0375 75.076875 -15.45 75.71625 -15.875 76.375 C-16.535 76.375 -17.195 76.375 -17.875 76.375 C-17.9874707 76.96812988 -18.09994141 77.56125977 -18.21582031 78.17236328 C-18.93393596 80.57193341 -19.77571982 81.75287404 -21.421875 83.6171875 C-21.9375 84.20886719 -22.453125 84.80054688 -22.984375 85.41015625 C-23.52578125 86.01730469 -24.0671875 86.62445313 -24.625 87.25 C-25.68265244 88.45541271 -26.73994753 89.66113907 -27.796875 90.8671875 C-28.31314453 91.44952148 -28.82941406 92.03185547 -29.36132812 92.63183594 C-30.83414191 94.3279473 -32.23778333 96.06624542 -33.640625 97.8203125 C-34.37796875 98.66335938 -35.1153125 99.50640625 -35.875 100.375 C-36.535 100.375 -37.195 100.375 -37.875 100.375 C-38.535 101.695 -39.195 103.015 -39.875 104.375 C-40.535 104.375 -41.195 104.375 -41.875 104.375 C-42.535 105.695 -43.195 107.015 -43.875 108.375 C-44.535 108.375 -45.195 108.375 -45.875 108.375 C-46.535 109.695 -47.195 111.015 -47.875 112.375 C-48.535 112.375 -49.195 112.375 -49.875 112.375 C-50.06578125 112.92285156 -50.2565625 113.47070312 -50.453125 114.03515625 C-52.52941819 117.45191345 -55.45674163 119.43303323 -58.625 121.8125 C-59.84962134 122.74783049 -61.07358523 123.68402242 -62.296875 124.62109375 C-62.89435547 125.07468262 -63.49183594 125.52827148 -64.10742188 125.99560547 C-65.85201251 127.35706087 -67.52751555 128.77762124 -69.203125 130.22265625 C-71.875 132.375 -71.875 132.375 -73.875 132.375 C-73.82859375 133.86580078 -73.82859375 133.86580078 -73.78125 135.38671875 C-73.86038057 138.75306518 -74.26657448 141.73459201 -74.94311523 145.01904297 C-76.82635723 154.47464241 -77.23081434 163.88353934 -77.296875 173.49472046 C-77.30715509 174.97852757 -77.32406209 176.46230609 -77.34814453 177.94595337 C-77.50702169 189.09556796 -76.93723663 200.22731306 -69.875 209.375 C-69.875 210.035 -69.875 210.695 -69.875 211.375 C-65.915 211.375 -61.955 211.375 -57.875 211.375 C-57.875 210.715 -57.875 210.055 -57.875 209.375 C-57.25625 209.2925 -56.6375 209.21 -56 209.125 C-53.69062433 208.56241541 -53.69062433 208.56241541 -52.625 206.3125 C-52.25375 205.3534375 -52.25375 205.3534375 -51.875 204.375 C-51.215 204.375 -50.555 204.375 -49.875 204.375 C-49.63394531 203.859375 -49.39289063 203.34375 -49.14453125 202.8125 C-47.79870214 200.2285081 -46.28877529 197.77233959 -44.75219727 195.29833984 C-40.37732015 188.22563681 -36.81026293 181.17879141 -33.875 173.375 C-33.50246094 172.50101563 -33.12992188 171.62703125 -32.74609375 170.7265625 C-31.70131746 168.32408805 -31.70131746 168.32408805 -31.875 165.375 C-32.5040625 165.27703125 -33.133125 165.1790625 -33.78125 165.078125 C-42.56058842 163.54438516 -48.82287162 161.11880019 -54.875 154.375 C-55.63103516 153.73111328 -55.63103516 153.73111328 -56.40234375 153.07421875 C-59.96798293 148.9600197 -60.75441131 142.20213488 -60.98046875 136.90234375 C-60.37538281 128.92365242 -57.47392075 122.52386065 -51.6875 117 C-45.16771443 111.65207131 -38.75203405 109.79891952 -30.36328125 110.0859375 C-23.20511506 110.91749841 -17.2570321 113.31453631 -12.5703125 118.94140625 C-6.84128713 126.51795756 -5.41129903 132.95770068 -5.1875 142.3125 C-5.15333984 143.28251953 -5.11917969 144.25253906 -5.08398438 145.25195312 C-5.00211426 147.62618637 -4.93276922 150.00007877 -4.875 152.375 C4.68916456 148.23495654 13.09068445 143.50146669 21.1171875 136.79296875 C23.19484553 135.3256733 24.59459374 134.61321816 27.125 134.375 C27.785 135.035 28.445 135.695 29.125 136.375 C29.0228219 139.33816504 28.04103085 140.46914723 26.0625 142.6875 C24.6084375 144.0178125 24.6084375 144.0178125 23.125 145.375 C22.568125 145.92414063 22.01125 146.47328125 21.4375 147.0390625 C16.68277571 151.53623923 11.67817296 154.34822903 5.76171875 157.11328125 C2.98829324 158.3641501 2.98829324 158.3641501 0.125 160.375 C-0.865 160.601875 -1.855 160.82875 -2.875 161.0625 C-6.14552832 162.13059166 -6.14552832 162.13059166 -7.5625 165.4375 C-8.26283792 167.39044231 -8.87006096 169.35873023 -9.47265625 171.34375 C-13.83326319 185.33947049 -21.08744873 197.39651507 -31.875 207.375 C-32.74898437 208.20451172 -32.74898437 208.20451172 -33.640625 209.05078125 C-38.33422703 213.36556895 -43.18419308 216.51642338 -48.875 219.375 C-47.68003906 219.75011719 -46.48507812 220.12523437 -45.25390625 220.51171875 C-36.98975956 223.15534307 -29.26594695 225.72144081 -21.875 230.375 C-21.875 231.035 -21.875 231.695 -21.875 232.375 C-21.27042969 232.60445312 -20.66585938 232.83390625 -20.04296875 233.0703125 C-17.26522386 234.74196438 -16.55746205 236.33721002 -15.1875 239.25 C-14.56294922 240.54550781 -14.56294922 240.54550781 -13.92578125 241.8671875 C-10.55482723 249.91236402 -11.6569548 257.44391223 -14.875 265.375 C-16.36551748 268.00918498 -17.90094395 270.0466262 -19.875 272.375 C-20.535 272.375 -21.195 272.375 -21.875 272.375 C-22.07222656 272.9525 -22.26945312 273.53 -22.47265625 274.125 C-24.42788167 277.26207477 -27.15017693 278.64857422 -30.3125 280.375 C-30.94430176 280.72530273 -31.57610352 281.07560547 -32.22705078 281.43652344 C-51.46671455 291.86550006 -72.01136969 293.5636576 -93.4675293 293.50537109 C-95.80589298 293.50001513 -98.144064 293.50534921 -100.48242188 293.51171875 C-113.29924797 293.5186464 -125.70304552 293.09008881 -138.25 290.19140625 C-142.06663462 289.33184091 -145.89996394 288.62514 -149.75 287.9375 C-160.31988421 286.00582426 -170.6690896 283.31515865 -181 280.375 C-182.70929688 279.90513672 -182.70929688 279.90513672 -184.453125 279.42578125 C-187.875 278.375 -187.875 278.375 -191.296875 276.91796875 C-197.42182826 274.43662903 -197.42182826 274.43662903 -203.85351562 274.97363281 C-208.18085026 276.90496002 -212.09185371 279.45765863 -216.00146484 282.11767578 C-218.69388208 283.92454948 -221.49703585 285.51871867 -224.3125 287.125 C-225.27671875 287.68960937 -226.2409375 288.25421875 -227.234375 288.8359375 C-231.08217101 291.07858784 -234.96173656 293.24885099 -238.875 295.375 C-239.47973145 295.70790039 -240.08446289 296.04080078 -240.70751953 296.38378906 C-249.90268674 301.43443924 -258.98379293 305.81576511 -268.875 309.375 C-270.48170198 310.03553304 -272.08600292 310.70194558 -273.6875 311.375 C-279.98957958 313.91649439 -286.49825244 315.87122987 -293.00610352 317.81201172 C-294.71163891 318.32578894 -296.4072709 318.87215327 -298.1015625 319.421875 C-303.37383065 320.75358662 -308.6672903 321.36867994 -314.0625 322 C-315.12275391 322.1340625 -316.18300781 322.268125 -317.27539062 322.40625 C-340.9399017 325.2327242 -364.07503819 322.46293764 -383.38671875 307.71875 C-386.10698893 305.15648609 -387.9308475 302.55786737 -389.875 299.375 C-390.50148438 298.38886719 -390.50148438 298.38886719 -391.140625 297.3828125 C-395.35988732 289.31263616 -395.17116611 279.71545364 -393.0625 271.02734375 C-390.30294917 263.60146911 -385.79261755 257.62993739 -379.875 252.375 C-379.215 252.375 -378.555 252.375 -377.875 252.375 C-377.545 251.385 -377.215 250.395 -376.875 249.375 C-374.546875 247.875 -374.546875 247.875 -371.625 246.375 C-367.42794216 244.19731499 -367.42794216 244.19731499 -363.34765625 241.8125 C-332.32666137 223.77817754 -283.91560549 231.47273485 -251.56958008 239.95605469 C-248.66638072 240.7454634 -245.77012652 241.5565157 -242.875 242.375 C-241.89370117 242.64715332 -240.91240234 242.91930664 -239.90136719 243.19970703 C-230.60556927 245.78590382 -221.36670055 248.49001353 -212.2421875 251.6328125 C-211.15550781 252.00615723 -210.06882812 252.37950195 -208.94921875 252.76416016 C-206.86637675 253.48736919 -204.78792679 254.22339556 -202.71484375 254.97412109 C-196.47005762 257.15529897 -192.50670717 258.06942872 -186.3046875 255.17578125 C-185.46164062 254.68464844 -184.61859375 254.19351562 -183.75 253.6875 C-175.67201764 249.10924297 -167.4436094 244.95823666 -158.875 241.375 C-157.2051343 240.59763073 -155.53593433 239.81883072 -153.8671875 239.0390625 C-148.20108395 236.45922481 -142.45245377 234.31958775 -136.5625 232.3125 C-135.04885864 231.79381348 -135.04885864 231.79381348 -133.50463867 231.26464844 C-115.47343679 225.13806055 -97.0058204 220.07320512 -77.875 219.375 C-78.37128906 219.05789063 -78.86757813 218.74078125 -79.37890625 218.4140625 C-90.67536669 210.65444451 -94.64045335 200.15279586 -97.875 187.375 C-98.23731225 185.38004613 -98.58215094 183.38132762 -98.875 181.375 C-99.60203125 182.69951172 -99.60203125 182.69951172 -100.34375 184.05078125 C-104.28414191 191.13654763 -108.41332072 197.78968651 -113.30859375 204.265625 C-114.90135297 206.28253714 -114.90135297 206.28253714 -115.875 208.375 C-116.535 208.375 -117.195 208.375 -117.875 208.375 C-118.1225 208.9525 -118.37 209.53 -118.625 210.125 C-120.05799988 212.70439979 -121.65924676 214.43621592 -123.875 216.375 C-124.535 216.375 -125.195 216.375 -125.875 216.375 C-126.205 217.365 -126.535 218.355 -126.875 219.375 C-132.5034481 222.36152348 -138.06555025 224.14970461 -144.4296875 222.85546875 C-149.45148522 221.22375703 -152.28807672 219.51531939 -154.9375 214.875 C-157.52184557 209.50397575 -158.09661829 204.53734173 -158.4375 198.625 C-158.48068359 197.92761719 -158.52386719 197.23023438 -158.56835938 196.51171875 C-158.67389596 194.79968078 -158.7748991 193.08736439 -158.875 191.375 C-159.45000244 192.1474707 -159.45000244 192.1474707 -160.03662109 192.93554688 C-161.76787103 195.25367009 -163.5087627 197.56437076 -165.25 199.875 C-165.85328125 200.68582031 -166.4565625 201.49664063 -167.078125 202.33203125 C-167.94824219 203.48251953 -167.94824219 203.48251953 -168.8359375 204.65625 C-169.37009277 205.36845703 -169.90424805 206.08066406 -170.45458984 206.81445312 C-170.9233252 207.32943359 -171.39206055 207.84441406 -171.875 208.375 C-172.535 208.375 -173.195 208.375 -173.875 208.375 C-174.535 209.695 -175.195 211.015 -175.875 212.375 C-176.535 212.375 -177.195 212.375 -177.875 212.375 C-178.20371094 213.26638672 -178.20371094 213.26638672 -178.5390625 214.17578125 C-180.31137614 217.0933619 -182.24048258 217.993194 -185.25 219.5625 C-186.68472656 220.32626953 -186.68472656 220.32626953 -188.1484375 221.10546875 C-194.33352438 223.98534445 -201.5159089 224.63126584 -208.125 222.7265625 C-216.84420393 218.74161383 -221.55590672 212.31817015 -224.9453125 203.5234375 C-226.12678704 199.52230943 -226.56564653 195.71263903 -226.734375 191.5546875 C-226.73619178 189.32869935 -226.73619178 189.32869935 -227.875 187.375 C-228.42929687 188.3134375 -228.98359375 189.251875 -229.5546875 190.21875 C-230.2860754 191.43772984 -231.01786714 192.65646745 -231.75 193.875 C-232.11480469 194.49503906 -232.47960937 195.11507812 -232.85546875 195.75390625 C-233.8072518 197.32867458 -234.83610259 198.85629053 -235.875 200.375 C-236.535 200.375 -237.195 200.375 -237.875 200.375 C-237.93171875 200.91125 -237.9884375 201.4475 -238.046875 202 C-239.25523194 205.4654765 -241.64557368 207.75962602 -244.125 210.375 C-244.84236328 211.15617187 -244.84236328 211.15617187 -245.57421875 211.953125 C-251.17629424 217.96510846 -256.87435807 223.13716968 -265.4375 223.4765625 C-270.70312583 223.14746089 -274.22978252 222.44906659 -277.875 218.375 C-284.04303577 209.92017546 -283.000408 200.42157437 -282.875 190.375 C-283.926875 191.76912109 -283.926875 191.76912109 -285 193.19140625 C-289.67053227 199.30506195 -294.15457669 205.13125562 -300.17578125 209.9921875 C-302.10306105 211.5013854 -302.10306105 211.5013854 -304.4375 214.0625 C-311.61996249 220.87663108 -320.16753061 222.94539939 -329.9375 222.75 C-336.0455178 221.97025305 -340.040439 218.76329137 -343.75 214 C-348.00542265 207.95908532 -348.23386769 200.92380412 -348.1875 193.8125 C-348.18121582 192.49511841 -348.18121582 192.49511841 -348.17480469 191.15112305 C-347.98613944 180.15735809 -345.86407999 170.2162645 -340.875 160.375 C-340.29992285 159.14814581 -339.72722437 157.92017523 -339.15625 156.69140625 C-335.00507978 147.90428839 -330.472026 139.6016177 -323.875 132.375 C-323.215 132.375 -322.555 132.375 -321.875 132.375 C-321.215 131.055 -320.555 129.735 -319.875 128.375 C-319.215 128.375 -318.555 128.375 -317.875 128.375 C-317.215 127.055 -316.555 125.735 -315.875 124.375 C-315.215 124.375 -314.555 124.375 -313.875 124.375 C-313.875 123.715 -313.875 123.055 -313.875 122.375 C-301.50961389 112.89974851 -288.77513888 107.38965955 -272.875 109.375 C-267.33259704 110.98707602 -263.22237234 113.12726751 -260.25 118.1875 C-259.79625 119.239375 -259.3425 120.29125 -258.875 121.375 C-257.7694811 120.43909496 -256.66564547 119.50120142 -255.5625 118.5625 C-254.94761719 118.04042969 -254.33273437 117.51835937 -253.69921875 116.98046875 C-251.87292175 115.44270461 -251.87292175 115.44270461 -250.45703125 113.7578125 C-248.36160335 111.9262533 -246.5909894 111.59195627 -243.875 111.0625 C-243.00875 110.88074219 -242.1425 110.69898438 -241.25 110.51171875 C-238.875 110.375 -238.875 110.375 -235.875 112.375 C-235.875 113.695 -235.875 115.015 -235.875 116.375 C-236.44347656 116.643125 -237.01195312 116.91125 -237.59765625 117.1875 C-243.77851252 120.32436195 -247.61129461 123.97573489 -251.875 129.375 C-252.74125 130.344375 -253.6075 131.31375 -254.5 132.3125 C-257.01583361 135.55660124 -258.78311075 138.83569936 -260.56640625 142.51953125 C-261.875 144.375 -261.875 144.375 -263.83984375 145.26171875 C-265.875 145.375 -265.875 145.375 -268.875 143.375 C-268 138.625 -268 138.625 -266.875 136.375 C-266.77793287 134.23095831 -266.74521464 132.08373249 -266.75 129.9375 C-266.74742187 128.78378906 -266.74484375 127.63007813 -266.7421875 126.44140625 C-266.73604078 123.33374333 -266.73604078 123.33374333 -267.875 120.375 C-272.50621316 118.1696604 -275.93659051 118.14039763 -280.875 119.375 C-287.48053425 122.8979516 -294.1336465 128.64318079 -298.55078125 134.65625 C-298.98777344 135.2234375 -299.42476563 135.790625 -299.875 136.375 C-300.535 136.375 -301.195 136.375 -301.875 136.375 C-302.205 137.695 -302.535 139.015 -302.875 140.375 C-303.535 140.375 -304.195 140.375 -304.875 140.375 C-305.28878906 141.48294922 -305.28878906 141.48294922 -305.7109375 142.61328125 C-306.78610508 145.16409829 -307.99282043 147.25121065 -309.5 149.5625 C-318.22131967 164.01252964 -327.31191871 183.14260307 -324.37109375 200.484375 C-323.73971736 202.89056535 -322.98852382 205.14795237 -321.875 207.375 C-315.18259394 208.01237201 -311.52522444 207.28786157 -306.0859375 203.30859375 C-302.89500811 200.51793995 -300.18231023 197.41182828 -297.50390625 194.1328125 C-296.69759766 193.26269531 -296.69759766 193.26269531 -295.875 192.375 C-295.215 192.375 -294.555 192.375 -293.875 192.375 C-293.545 191.055 -293.215 189.735 -292.875 188.375 C-292.215 188.375 -291.555 188.375 -290.875 188.375 C-290.59914063 187.62863281 -290.32328125 186.88226562 -290.0390625 186.11328125 C-288.97349044 183.60668388 -287.84452634 181.74940624 -286.25 179.5625 C-280.12553669 170.58595819 -275.36338078 160.39436757 -271.6640625 150.1953125 C-270.875 148.375 -270.875 148.375 -268.875 146.375 C-266.90380859 146.14794922 -266.90380859 146.14794922 -264.5234375 146.1796875 C-263.67265625 146.18613281 -262.821875 146.19257812 -261.9453125 146.19921875 C-261.05585938 146.21597656 -260.16640625 146.23273438 -259.25 146.25 C-258.3528125 146.25902344 -257.455625 146.26804687 -256.53125 146.27734375 C-254.31223414 146.3009503 -252.09374923 146.3338769 -249.875 146.375 C-248.77294922 148.03027344 -248.77294922 148.03027344 -247.875 150.375 C-248.41064453 152.96191406 -248.41064453 152.96191406 -249.5078125 155.890625 C-250.0965918 157.50831787 -250.0965918 157.50831787 -250.69726562 159.15869141 C-251.12716797 160.30257324 -251.55707031 161.44645508 -252 162.625 C-252.85097967 164.99052862 -253.69735762 167.35771786 -254.5390625 169.7265625 C-254.94672852 170.87286133 -255.35439453 172.01916016 -255.77441406 173.20019531 C-259.80008992 184.81285921 -261.54916376 196.12355728 -261.875 208.375 C-256.62903672 208.60686578 -254.8133153 207.87572471 -250.875 204.375 C-250.215 204.375 -249.555 204.375 -248.875 204.375 C-248.63136719 203.84003906 -248.38773438 203.30507813 -248.13671875 202.75390625 C-246.54787291 199.75821858 -244.6432026 197.08279818 -242.6875 194.3125 C-231.04004336 178.25337719 -231.04004336 178.25337719 -226.5625 159.375 C-226.13873772 153.00511302 -225.18447199 146.83395002 -224 140.5625 C-223.75769653 139.25635742 -223.75769653 139.25635742 -223.51049805 137.92382812 C-222.53242082 132.92656128 -221.23504938 128.18905676 -219.55761719 123.38256836 C-218.6828387 120.80985609 -218.04716102 118.20941337 -217.4375 115.5625 C-215.92839093 109.36886487 -213.9889695 103.38609647 -211.875 97.375 C-211.43027344 96.10462891 -211.43027344 96.10462891 -210.9765625 94.80859375 C-209.96864934 91.98729837 -208.92312651 89.18161118 -207.875 86.375 C-207.52961182 85.42028809 -207.52961182 85.42028809 -207.17724609 84.44628906 C-201.25140246 68.09782013 -193.58431928 52.82246709 -183.875 38.375 C-183.46378906 37.71757812 -183.05257812 37.06015625 -182.62890625 36.3828125 C-181.76584329 35.01076369 -180.83048475 33.68436799 -179.875 32.375 C-179.215 32.375 -178.555 32.375 -177.875 32.375 C-177.813125 31.818125 -177.75125 31.26125 -177.6875 30.6875 C-176.52033489 27.36556852 -174.44264415 25.77518909 -171.875 23.375 C-171.35679687 22.82585937 -170.83859375 22.27671875 -170.3046875 21.7109375 C-165.94961918 17.1127956 -161.22934231 13.72665226 -155.875 10.375 C-154.885 9.715 -153.895 9.055 -152.875 8.375 C-145.5531175 6.06282658 -137.89705385 4.82170355 -130.5625 7.75 C-125.57741276 10.66218078 -123.44361995 14.9495897 -121.875 20.375 C-119.16699456 38.17680627 -127.87134747 56.96055808 -135.875 72.375 C-136.535 72.375 -137.195 72.375 -137.875 72.375 C-137.93300781 73.01953125 -137.99101563 73.6640625 -138.05078125 74.328125 C-139.24901798 78.75762571 -141.62749696 82.26549428 -144.0625 86.125 C-144.80971313 87.32455322 -144.80971313 87.32455322 -145.57202148 88.54833984 C-146.99784665 90.82938131 -148.4348869 93.10296161 -149.875 95.375 C-150.53242187 96.42429687 -151.18984375 97.47359375 -151.8671875 98.5546875 C-154.72418974 103.00365119 -154.72418974 103.00365119 -155.875 104.375 C-156.535 104.375 -157.195 104.375 -157.875 104.375 C-157.94847656 104.90609375 -158.02195312 105.4371875 -158.09765625 105.984375 C-159.18543676 109.32971004 -161.20216388 111.86405947 -163.3125 114.625 C-163.72048828 115.17929687 -164.12847656 115.73359375 -164.54882812 116.3046875 C-165.60453309 117.70310909 -166.73487587 119.04450652 -167.875 120.375 C-168.535 120.375 -169.195 120.375 -169.875 120.375 C-169.936875 120.931875 -169.99875 121.48875 -170.0625 122.0625 C-171.20912279 125.32596487 -173.39455157 127.01554906 -175.875 129.375 C-176.535 130.365 -177.195 131.355 -177.875 132.375 C-178.535 132.375 -179.195 132.375 -179.875 132.375 C-180.1121875 132.94395996 -180.349375 133.51291992 -180.59375 134.09912109 C-182.15728041 136.87641348 -184.03508158 138.625471 -186.375 140.7890625 C-187.261875 141.63339844 -188.14875 142.47773437 -189.0625 143.34765625 C-190.92584266 145.10489189 -192.80078108 146.84991847 -194.6875 148.58203125 C-200.55667734 154.2208775 -203.33552987 158.20588089 -203.875 166.375 C-204.07719767 167.75091565 -204.28458136 169.12609222 -204.5 170.5 C-205.6376792 182.38242723 -206.84292876 197.49476834 -198.875 207.375 C-196.20339463 209.4741185 -194.88492235 209.37554122 -191.4375 209.1875 C-187.82292431 208.36312309 -185.8531608 207.53416658 -182.875 205.375 C-182.35292969 204.99730469 -181.83085938 204.61960937 -181.29296875 204.23046875 C-169.47770557 194.97562377 -162.36319394 179.85488889 -155.0625 167 C-154.68939697 166.34620361 -154.31629395 165.69240723 -153.93188477 165.01879883 C-151.62184669 160.90432184 -149.67781636 156.74316849 -147.875 152.375 C-147.4521875 151.42238281 -147.029375 150.46976563 -146.59375 149.48828125 C-142.48499653 140.04604971 -139.86106553 130.6300815 -138.875 120.375 C-139.596875 120.808125 -140.31875 121.24125 -141.0625 121.6875 C-141.990625 122.244375 -142.91875 122.80125 -143.875 123.375 C-144.720625 123.9525 -145.56625 124.53 -146.4375 125.125 C-148.875 126.375 -148.875 126.375 -151.125 126.25 C-152.875 125.375 -152.875 125.375 -153.875 122.375 C-152.73046875 120.55078125 -152.73046875 120.55078125 -151.0625 118.6875 C-150.24845703 117.75357422 -150.24845703 117.75357422 -149.41796875 116.80078125 C-147.875 115.375 -147.875 115.375 -145.875 115.375 C-145.875 114.715 -145.875 114.055 -145.875 113.375 C-138.54935484 110.17835484 -132.80204487 109.15182209 -125.0625 111.5625 C-121.597198 113.53296584 -120.08018788 115.08346694 -117.875 118.375 C-117.1953125 121.3203125 -117.1953125 121.3203125 -117 124.5 C-116.92007812 125.53382813 -116.84015625 126.56765625 -116.7578125 127.6328125 C-117.15249177 140.23623724 -121.93867834 151.72645972 -126.12890625 163.46142578 C-134.0325528 184.3901951 -134.0325528 184.3901951 -135.875 206.375 C-135.545 207.035 -135.215 207.695 -134.875 208.375 C-129.4766361 207.95159891 -126.86695716 206.98765905 -122.875 203.375 C-117.83448488 197.38271131 -113.80897027 190.81270796 -110.19921875 183.8828125 C-108.84547496 181.31908532 -107.37431399 178.85596203 -105.875 176.375 C-104.82153748 174.52750976 -103.77997636 172.67318594 -102.75 170.8125 C-101.97269531 169.41837891 -101.97269531 169.41837891 -101.1796875 167.99609375 C-99.0396437 163.6967842 -98.78703719 160.08502156 -98.68701172 155.28637695 C-97.89031047 123.50301579 -88.59216212 90.01003073 -74.875 61.375 C-74.18441553 59.86148908 -73.49579211 58.34708261 -72.80859375 56.83203125 C-69.19466702 48.93524826 -65.68334294 41.32215429 -60.3828125 34.3828125 C-58.80698596 32.36220722 -58.80698596 32.36220722 -57.453125 29.9609375 C-55.67770955 27.05171713 -53.66541763 24.50601937 -51.5 21.875 C-50.74976563 20.9571875 -49.99953125 20.039375 -49.2265625 19.09375 C-46.88480744 16.38633883 -44.43823077 13.87240141 -41.875 11.375 C-41.27558594 10.77816406 -40.67617188 10.18132812 -40.05859375 9.56640625 C-29.33444733 -0.4379988 -13.89187751 -7.85193076 0 0 Z M-29.875 19.375 C-31.09994533 22.01254901 -31.09994533 22.01254901 -31.875 24.375 C-32.535 24.375 -33.195 24.375 -33.875 24.375 C-34.23851562 25.05304688 -34.60203125 25.73109375 -34.9765625 26.4296875 C-37.99560824 32.0187927 -41.11007376 37.50542088 -44.48046875 42.890625 C-46.20050941 45.95489911 -47.55224213 49.12609306 -48.875 52.375 C-49.17398193 53.10912109 -49.47296387 53.84324219 -49.78100586 54.59960938 C-51.85154083 59.71993665 -53.88683949 64.85434349 -55.92333984 69.98828125 C-56.71573602 71.97557345 -57.52213645 73.95727465 -58.33203125 75.9375 C-61.3994769 83.5720314 -63.61633556 91.32311482 -65.7421875 99.2578125 C-66.58609964 102.38690909 -67.53644713 105.44571087 -68.625 108.5 C-70.00546402 112.43861203 -70.49758234 116.22340572 -70.875 120.375 C-63.89472597 117.16185799 -58.18819282 111.82801368 -52.875 106.375 C-51.71336546 105.41057318 -50.54632005 104.45264013 -49.375 103.5 C-46.35421079 100.95652164 -44.23257586 98.27841415 -42.04296875 95.01171875 C-40.875 93.375 -40.875 93.375 -38.5625 91.125 C-35.13308227 87.61582836 -32.45202542 83.71843215 -29.64453125 79.703125 C-27.875 77.375 -27.875 77.375 -25.875 76.375 C-24.96452497 74.95114185 -24.11791656 73.48581324 -23.3125 72 C-22.66087891 70.81277344 -22.66087891 70.81277344 -21.99609375 69.6015625 C-20.7693634 67.29841636 -20.7693634 67.29841636 -19.875 64.375 C-19.215 64.375 -18.555 64.375 -17.875 64.375 C-17.51148438 63.64796875 -17.14796875 62.9209375 -16.7734375 62.171875 C-16.27070312 61.16640625 -15.76796875 60.1609375 -15.25 59.125 C-14.43015625 57.46984375 -14.43015625 57.46984375 -13.59375 55.78125 C-12.52326757 53.65974846 -11.42384239 51.55230082 -10.28125 49.46875 C-4.79096547 39.2725073 -0.57368531 27.08683222 -1.875 15.375 C-2.94675393 11.83889467 -4.22463149 9.02536851 -6.875 6.375 C-16.62025831 5.01066384 -24.0943577 12.21026025 -29.875 19.375 Z M-159.875 33.375 C-166.24448832 43.33083494 -172.23853009 53.65419896 -176.375 64.75 C-177.79444728 68.51798732 -179.22545982 72.27334622 -180.75 76 C-189.58361334 98.01221536 -195.80978913 120.23444273 -200.875 143.375 C-196.42387385 139.68694721 -192.32295583 135.90668953 -188.4375 131.625 C-187.57253906 130.68140625 -186.70757813 129.7378125 -185.81640625 128.765625 C-183.66486613 126.62951596 -183.66486613 126.62951596 -183.875 124.375 C-183.215 124.375 -182.555 124.375 -181.875 124.375 C-179.9834693 122.16081383 -178.19850321 119.93933016 -176.4375 117.625 C-175.94701172 116.99078125 -175.45652344 116.3565625 -174.95117188 115.703125 C-174.00353619 114.47541885 -173.06016245 113.24440832 -172.12158203 112.00976562 C-171.1053536 110.67708534 -170.06918025 109.35963304 -169.02734375 108.046875 C-167.68583061 106.43896616 -167.68583061 106.43896616 -167.875 104.375 C-167.215 104.375 -166.555 104.375 -165.875 104.375 C-165.38 102.395 -165.38 102.395 -164.875 100.375 C-164.215 100.375 -163.555 100.375 -162.875 100.375 C-161.25693386 98.20277154 -161.25693386 98.20277154 -159.625 95.4375 C-157.42970507 91.87412273 -155.20479204 88.37129122 -152.8125 84.9375 C-149.98480165 80.71460484 -147.72597262 76.31411704 -145.515625 71.7421875 C-144.32924925 69.30729251 -143.11671612 66.90528498 -141.859375 64.5078125 C-135.05274693 51.43744532 -126.84050906 34.23926253 -131.55859375 19.1953125 C-132.53774231 17.30910155 -132.53774231 17.30910155 -134.875 15.375 C-146.21948878 13.15542611 -154.12767242 25.34667066 -159.875 33.375 Z M-48.875 125.375 C-52.34088118 130.5140652 -53.50525857 136.37100436 -52.54296875 142.484375 C-50.78808492 148.32643989 -47.10514196 152.33347129 -41.875 155.375 C-37.59157056 156.75706762 -33.31592402 157.66418137 -28.875 158.375 C-28.78674639 154.89599751 -28.73419365 151.41728883 -28.6875 147.9375 C-28.66236328 146.96361328 -28.63722656 145.98972656 -28.61132812 144.98632812 C-28.53398817 137.27811238 -29.72210309 131.06568042 -33.625 124.375 C-38.97165579 119.62241708 -43.86626385 120.93543841 -48.875 125.375 Z M-157.875 187.375 C-156.875 189.375 -156.875 189.375 -156.875 189.375 Z M-77.54296875 227.42578125 C-113.44519828 228.70669668 -149.40029578 245.18222612 -180.875 261.375 C-180.875 262.035 -180.875 262.695 -180.875 263.375 C-176.62759955 264.82025822 -172.37663119 266.25474027 -168.125 267.6875 C-166.34416016 268.29368164 -166.34416016 268.29368164 -164.52734375 268.91210938 C-157.03880329 271.42875002 -149.55574536 273.54039678 -141.875 275.375 C-140.25909561 275.79705748 -138.64442436 276.22387515 -137.03125 276.65625 C-108.21993092 284.25550986 -77.89443885 288.0363109 -48.875 279.375 C-47.94042969 279.09914063 -47.00585938 278.82328125 -46.04296875 278.5390625 C-35.93646146 275.2314783 -27.25299824 269.77150251 -21.875 260.375 C-20.88422702 257.92213404 -20.88422702 257.92213404 -20.875 255.375 C-20.7203125 253.4878125 -20.7203125 253.4878125 -20.5625 251.5625 C-20.63370879 246.85381892 -22.2248092 243.2259245 -24.875 239.375 C-27.27359044 237.03869252 -27.27359044 237.03869252 -29.875 235.375 C-30.46410156 234.88902344 -31.05320312 234.40304687 -31.66015625 233.90234375 C-44.34377494 225.15579188 -62.96783445 227.22399558 -77.54296875 227.42578125 Z M-378.6875 264.125 C-383.3458306 269.80166334 -386.72388509 276.81534732 -386.25390625 284.3046875 C-384.92200246 291.58209994 -382.35530187 296.80492753 -376.36328125 301.21875 C-374.875 302.375 -374.875 302.375 -373.875 304.375 C-364.12606761 310.24625329 -353.20365252 313.82148278 -341.875 314.375 C-341.21097168 314.41061035 -340.54694336 314.4462207 -339.86279297 314.48291016 C-307.64601465 315.99156206 -277.98625517 305.18372989 -249.875 290.375 C-249.16182617 290.00197754 -248.44865234 289.62895508 -247.71386719 289.24462891 C-239.85081882 285.12992162 -232.03739213 280.93059828 -224.2578125 276.66015625 C-220.8363042 274.81478538 -217.36490663 273.08702967 -213.875 271.375 C-213.875 270.715 -213.875 270.055 -213.875 269.375 C-226.04366446 265.08134116 -238.41127501 261.59852587 -250.85546875 258.20068359 C-253.56212746 257.46055425 -256.26561037 256.70987935 -258.96875 255.95703125 C-293.95623482 246.33239623 -350.14790157 234.0737703 -378.6875 264.125 Z " fill="#FEFEFE" transform="translate(761.875,379.625)"/>
<path d="M0 0 C6.7299383 5.45224134 9.7701697 11.14794404 11.01171875 19.68359375 C9.49181198 30.51292946 5.16198575 37.70564797 -3.48828125 44.24609375 C-13.91949586 50.69139709 -24.49139211 53.30784544 -36.48828125 55.24609375 C-37.38933594 55.39820313 -38.29039062 55.5503125 -39.21875 55.70703125 C-41.65400947 56.02598559 -44.03256998 56.16343306 -46.48828125 56.24609375 C-47.12652832 56.271875 -47.76477539 56.29765625 -48.42236328 56.32421875 C-63.28841484 56.85337743 -77.77095949 55.2082354 -92.48828125 53.24609375 C-93.27122559 53.14506348 -94.05416992 53.0440332 -94.86083984 52.93994141 C-100.54132101 52.2066745 -106.07226857 51.39222309 -111.61328125 49.93359375 C-115.376247 48.84234561 -115.376247 48.84234561 -117.92578125 50.62109375 C-118.44140625 51.15734375 -118.95703125 51.69359375 -119.48828125 52.24609375 C-120.14828125 52.24609375 -120.80828125 52.24609375 -121.48828125 52.24609375 C-122.14828125 53.56609375 -122.80828125 54.88609375 -123.48828125 56.24609375 C-124.14828125 56.24609375 -124.80828125 56.24609375 -125.48828125 56.24609375 C-125.59527344 56.79136719 -125.70226562 57.33664062 -125.8125 57.8984375 C-126.63707303 60.76299468 -127.9131428 63.17032418 -129.30078125 65.80859375 C-136.03410796 79.09847725 -139.85930154 93.34304444 -142.640625 107.93359375 C-143.65549634 113.20539133 -144.8315252 118.44148268 -145.98828125 123.68359375 C-147.44646961 130.31323904 -148.84649443 136.94055102 -150.05078125 143.62109375 C-153.76682473 163.83224135 -158.37910854 184.73143736 -167.48828125 203.24609375 C-167.85469727 203.99665039 -168.22111328 204.74720703 -168.59863281 205.52050781 C-173.37392583 215.19828082 -178.19975166 224.19516566 -185.48828125 232.24609375 C-186.08382812 232.94734375 -186.679375 233.64859375 -187.29296875 234.37109375 C-188.99072012 236.36312202 -190.72713703 238.3100553 -192.48828125 240.24609375 C-192.99488281 240.8184375 -193.50148438 241.39078125 -194.0234375 241.98046875 C-201.17343283 249.63992321 -210.80571342 256.22905974 -220.48828125 260.24609375 C-221.28105469 260.58125 -222.07382812 260.91640625 -222.890625 261.26171875 C-242.72564569 269.06757124 -263.75196577 269.68223986 -283.73828125 262.05859375 C-289.860905 259.32542792 -295.4908387 255.72785274 -300.48828125 251.24609375 C-300.81828125 250.25609375 -301.14828125 249.26609375 -301.48828125 248.24609375 C-302.14828125 248.24609375 -302.80828125 248.24609375 -303.48828125 248.24609375 C-316.0556127 232.44434104 -319.57022658 215.13263383 -317.48828125 195.24609375 C-314.65964326 177.82441878 -304.34581576 161.85333962 -290.1796875 151.5703125 C-277.50015635 142.953363 -263.18292871 138.11635731 -247.86328125 140.90625 C-235.56705789 143.76958427 -226.28696223 148.56319441 -219.1484375 159.29296875 C-213.70944889 168.96796966 -211.82793968 178.68132896 -214.21875 189.57421875 C-216.83523023 198.75859834 -220.23259134 206.83408872 -227.48828125 213.24609375 C-228.08640625 213.81199219 -228.68453125 214.37789062 -229.30078125 214.9609375 C-239.10916251 224.02219597 -248.95521642 226.67196777 -262.1875 226.515625 C-266.28417087 226.18110395 -268.94654045 225.26994563 -272.48828125 223.24609375 C-272.11328125 221.30859375 -272.11328125 221.30859375 -271.48828125 219.24609375 C-268.53446551 217.76918588 -265.71358965 217.96985763 -262.42578125 217.80859375 C-256.58910909 217.48476161 -251.14467117 216.73461741 -245.48828125 215.24609375 C-245.48828125 214.58609375 -245.48828125 213.92609375 -245.48828125 213.24609375 C-244.86953125 213.16359375 -244.25078125 213.08109375 -243.61328125 212.99609375 C-241.30390558 212.43350916 -241.30390558 212.43350916 -240.23828125 210.18359375 C-239.86703125 209.22453125 -239.86703125 209.22453125 -239.48828125 208.24609375 C-238.82828125 208.24609375 -238.16828125 208.24609375 -237.48828125 208.24609375 C-235.92164828 205.14197446 -234.40271051 202.01893702 -232.92578125 198.87109375 C-232.49136719 197.95585938 -232.05695313 197.040625 -231.609375 196.09765625 C-229.45084507 190.60731879 -229.30630538 185.14759576 -229.30078125 179.30859375 C-229.28853516 178.63119141 -229.27628906 177.95378906 -229.26367188 177.25585938 C-229.23596124 167.621796 -232.25902452 162.43368728 -238.79296875 155.6484375 C-245.55433229 149.62200478 -252.97527841 149.69151584 -261.77734375 149.90234375 C-270.91597073 150.7488692 -277.79987485 154.75157231 -285.2734375 159.85546875 C-287.48828125 161.24609375 -287.48828125 161.24609375 -289.48828125 161.24609375 C-289.81828125 162.23609375 -290.14828125 163.22609375 -290.48828125 164.24609375 C-292.15494792 165.91276042 -293.82161458 167.57942708 -295.48828125 169.24609375 C-304.55953469 180.14249428 -308.80267746 195.18559637 -308.48828125 209.24609375 C-307.80685121 214.01086224 -306.74127588 218.60166033 -305.48828125 223.24609375 C-305.27042969 224.09429688 -305.05257812 224.9425 -304.828125 225.81640625 C-301.68888947 236.60635351 -294.49111591 244.86391674 -284.86328125 250.49609375 C-283.74953125 251.07359375 -282.63578125 251.65109375 -281.48828125 252.24609375 C-280.56015625 252.78234375 -279.63203125 253.31859375 -278.67578125 253.87109375 C-266.19649212 259.25431651 -250.1017469 258.98892038 -237.48828125 254.24609375 C-236.34166016 253.8284375 -236.34166016 253.8284375 -235.171875 253.40234375 C-226.79911039 250.02411525 -219.39258929 244.96634337 -213.7890625 237.86328125 C-212.48828125 236.24609375 -212.48828125 236.24609375 -209.86328125 233.74609375 C-207.04284533 230.77721384 -205.3998421 227.8568198 -203.48828125 224.24609375 C-202.82828125 224.24609375 -202.16828125 224.24609375 -201.48828125 224.24609375 C-201.39289063 223.73691406 -201.2975 223.22773437 -201.19921875 222.703125 C-200.20738286 219.27529657 -198.65201894 216.14141674 -197.11328125 212.93359375 C-193.16809101 204.65036593 -189.86372773 196.54375218 -187.42578125 187.68359375 C-186.91528025 185.84861911 -186.40359231 184.01397421 -185.890625 182.1796875 C-185.53013062 180.88865112 -185.53013062 180.88865112 -185.16235352 179.5715332 C-184.62002222 177.70057862 -184.01337781 175.84832831 -183.38671875 174.00390625 C-182.38102928 170.91687683 -181.76772533 167.87573391 -181.17578125 164.68359375 C-179.96077075 158.32417709 -178.51517531 152.0374418 -176.98828125 145.74609375 C-175.51297271 139.65962884 -174.11407152 133.58283358 -172.92578125 127.43359375 C-171.39903582 119.62174628 -169.58671805 111.92122206 -167.48828125 104.24609375 C-167.28364258 103.49279785 -167.07900391 102.73950195 -166.86816406 101.96337891 C-162.43162327 85.97790568 -155.78736372 69.72109883 -144.48828125 57.24609375 C-143.49828125 56.91609375 -142.50828125 56.58609375 -141.48828125 56.24609375 C-140.27946029 54.24592909 -140.27946029 54.24592909 -139.48828125 52.24609375 C-138.82828125 52.24609375 -138.16828125 52.24609375 -137.48828125 52.24609375 C-137.48828125 51.58609375 -137.48828125 50.92609375 -137.48828125 50.24609375 C-135.17828125 48.92609375 -132.86828125 47.60609375 -130.48828125 46.24609375 C-130.48828125 45.91609375 -130.48828125 45.58609375 -130.48828125 45.24609375 C-131.34550781 45.12492187 -132.20273437 45.00375 -133.0859375 44.87890625 C-134.22933594 44.71132813 -135.37273437 44.54375 -136.55078125 44.37109375 C-137.67613281 44.20867187 -138.80148437 44.04625 -139.9609375 43.87890625 C-143.56651282 43.23205885 -146.97211669 42.2658996 -150.48828125 41.24609375 C-152.73197063 40.77730358 -154.98283342 40.34208041 -157.23828125 39.93359375 C-158.6432992 39.67877125 -160.04824116 39.42352959 -161.453125 39.16796875 C-162.23929199 39.02552734 -163.02545898 38.88308594 -163.83544922 38.73632812 C-166.84962437 38.17931877 -169.85821912 37.59619143 -172.8671875 37.01171875 C-206.43631181 30.53779306 -243.62474659 24.4203056 -274.234375 43.58203125 C-280.19834 47.98523592 -284.10221006 53.74483707 -287.48828125 60.24609375 C-288.14828125 60.24609375 -288.80828125 60.24609375 -289.48828125 60.24609375 C-289.61203125 61.27734375 -289.73578125 62.30859375 -289.86328125 63.37109375 C-290.48828125 67.24609375 -290.48828125 67.24609375 -291.55078125 69.93359375 C-294.42978244 80.10606462 -292.36487404 90.9803136 -287.48828125 100.24609375 C-281.06869213 109.82097939 -271.76823204 116.76907753 -260.48828125 119.24609375 C-257.2562587 119.5651923 -254.04740984 119.65970993 -250.80078125 119.68359375 C-250.00518799 119.69358398 -249.20959473 119.70357422 -248.38989258 119.71386719 C-242.78103542 119.6323177 -238.67762971 118.32957018 -233.48828125 116.24609375 C-232.16828125 116.24609375 -230.84828125 116.24609375 -229.48828125 116.24609375 C-229.48828125 115.58609375 -229.48828125 114.92609375 -229.48828125 114.24609375 C-227.87890625 112.94921875 -227.87890625 112.94921875 -225.73828125 111.49609375 C-221.01589138 108.07758498 -218.35925987 104.8590296 -216.48828125 99.24609375 C-215.93873454 92.60926046 -215.96497464 87.00082788 -219.48828125 81.24609375 C-223.02114081 77.8855688 -225.79682481 76.97837791 -230.55078125 76.80859375 C-234.70377115 76.96402002 -237.03647971 77.87914412 -240.48828125 80.24609375 C-243.30078125 80.43359375 -243.30078125 80.43359375 -245.48828125 80.24609375 C-246.34642491 77.84329149 -246.65008538 76.66662023 -245.71875 74.24609375 C-243.51563444 70.66515672 -240.4310025 69.43314961 -236.48828125 68.24609375 C-229.46670337 67.37167558 -223.26675873 67.58618727 -216.9765625 70.98046875 C-215.48828125 72.24609375 -215.48828125 72.24609375 -214.46875 74.32421875 C-213.58990476 76.60186271 -213.58990476 76.60186271 -210.48828125 77.24609375 C-206.05407987 85.15053968 -204.91497853 94.28100484 -207.21875 103.015625 C-209.13843324 108.24186469 -211.551075 112.3088875 -215.48828125 116.24609375 C-216.14828125 116.24609375 -216.80828125 116.24609375 -217.48828125 116.24609375 C-217.48828125 116.90609375 -217.48828125 117.56609375 -217.48828125 118.24609375 C-230.53665383 128.55519172 -246.51713499 129.90341948 -262.48828125 128.24609375 C-275.00772932 126.06892026 -286.02801351 118.37942159 -293.48828125 108.24609375 C-294.54015625 106.91578125 -294.54015625 106.91578125 -295.61328125 105.55859375 C-302.54463288 93.31320587 -303.45985322 79.24101475 -300.7578125 65.54296875 C-298.82054431 59.37533941 -295.87330175 53.73981555 -292.48828125 48.24609375 C-291.82828125 48.24609375 -291.16828125 48.24609375 -290.48828125 48.24609375 C-290.30265625 47.56546875 -290.11703125 46.88484375 -289.92578125 46.18359375 C-283.22359837 32.48782874 -264.69567068 23.98994115 -250.984375 18.9609375 C-227.50220966 11.80472721 -203.68121879 11.39321228 -179.48828125 14.24609375 C-178.61059082 14.34937988 -177.73290039 14.45266602 -176.82861328 14.55908203 C-156.4689029 17.04591092 -136.39924381 21.3857631 -116.48828125 26.24609375 C-100.59939818 30.09953355 -84.71573614 33.53076062 -68.61328125 36.37109375 C-67.64986816 36.5419751 -66.68645508 36.71285645 -65.69384766 36.88891602 C-49.72768506 39.66041648 -32.99828098 41.2209973 -17.05078125 37.55859375 C-16.38433594 37.41010986 -15.71789062 37.26162598 -15.03125 37.10864258 C-8.81335529 35.4867555 -3.68658977 32.26110911 0.01171875 26.99609375 C2.18169799 22.71225543 1.79929887 18.77394174 0.51171875 14.24609375 C-1.9790986 9.37275547 -5.71068586 7.98154793 -10.5925293 6.0949707 C-15.60174925 4.6265399 -20.48952758 4.65607122 -25.67578125 4.74609375 C-26.76987305 4.75527832 -27.86396484 4.76446289 -28.99121094 4.77392578 C-38.72308726 4.99098831 -47.28541448 6.5651937 -56.25390625 10.44140625 C-56.99125 10.70695312 -57.72859375 10.9725 -58.48828125 11.24609375 C-59.14828125 10.91609375 -59.80828125 10.58609375 -60.48828125 10.24609375 C-60.83992702 5.18239469 -59.41829151 3.03445174 -56.3359375 -0.8203125 C-42.58917611 -15.20645814 -14.7230012 -10.37775124 0 0 Z " fill="#FEFEFE" transform="translate(553.48828125,367.75390625)"/>
<path d="M0 0 C3.36105235 1.7505481 6.12901285 3.8639298 8.4375 6.875 C9.5752983 11.17334913 9.61282915 14.71597702 7.6875 18.75 C3.86029412 23.85294118 3.86029412 23.85294118 0.2578125 24.46875 C-8.25689678 24.55368476 -8.25689678 24.55368476 -12.1875 21.625 C-15.30925097 17.10384343 -15.95868385 13.44141852 -15 8 C-11.40959714 1.85313941 -7.24843554 -0.83635795 0 0 Z " fill="#FDFEFE" transform="translate(649,452)"/>
</svg>
